<?xml version="1.0" encoding="us-ascii" standalone="no"?><svg xmlns="http://www.w3.org/2000/svg" xmlns:xlink="http://www.w3.org/1999/xlink" contentStyleType="text/css" height="311px" preserveAspectRatio="none" style="width:1226px;height:311px;background:#F5F5F5;" version="1.1" viewBox="0 0 1226 311" width="1226px" zoomAndPan="magnify"><defs><filter height="300%" id="fjscyk1klov6n" width="300%" x="-1" y="-1"><feGaussianBlur result="blurOut" stdDeviation="2.0"/><feColorMatrix in="blurOut" result="blurOut2" type="matrix" values="0 0 0 0 0 0 0 0 0 0 0 0 0 0 0 0 0 0 .4 0"/><feOffset dx="4.0" dy="4.0" in="blurOut2" result="blurOut3"/><feBlend in="SourceGraphic" in2="blurOut3" mode="normal"/></filter></defs><g><rect fill="#F5F5F5" height="311" style="stroke:none;stroke-width:1.0;" width="1226" x="0" y="0"/><!--entity User--><g id="elem_User"><rect fill="#F1F1F1" filter="url(#fjscyk1klov6n)" height="46.2969" rx="2.5" ry="2.5" style="stroke:#181818;stroke-width:0.5;" width="144" x="360.8" y="15.5"/><rect fill="#F1F1F1" height="10" style="stroke:#181818;stroke-width:0.5;" width="15" x="484.8" y="20.5"/><rect fill="#F1F1F1" height="2" style="stroke:#181818;stroke-width:0.5;" width="4" x="482.8" y="22.5"/><rect fill="#F1F1F1" height="2" style="stroke:#181818;stroke-width:0.5;" width="4" x="482.8" y="26.5"/><text fill="#000000" font-family="sans-serif" font-size="14" lengthAdjust="spacing" textLength="104" x="375.8" y="48.4951">&#1055;&#1086;&#1083;&#1100;&#1079;&#1086;&#1074;&#1072;&#1090;&#1077;&#1083;&#1100;</text></g><!--entity Auth--><g id="elem_Auth"><rect fill="#ADD8E6" filter="url(#fjscyk1klov6n)" height="62.5938" rx="2.5" ry="2.5" style="stroke:#181818;stroke-width:0.5;" width="129" x="183.3" y="130"/><rect fill="#ADD8E6" height="10" style="stroke:#181818;stroke-width:0.5;" width="15" x="292.3" y="135"/><rect fill="#ADD8E6" height="2" style="stroke:#181818;stroke-width:0.5;" width="4" x="290.3" y="137"/><rect fill="#ADD8E6" height="2" style="stroke:#181818;stroke-width:0.5;" width="4" x="290.3" y="141"/><text fill="#000000" font-family="sans-serif" font-size="14" font-style="italic" lengthAdjust="spacing" textLength="40" x="222.8" y="162.9951">&#171;API&#187;</text><text fill="#000000" font-family="sans-serif" font-size="14" lengthAdjust="spacing" textLength="89" x="198.3" y="179.292">&#1057;&#1077;&#1088;&#1074;&#1080;&#1089; Auth</text></g><!--entity Dicts--><g id="elem_Dicts"><rect fill="#ADD8E6" filter="url(#fjscyk1klov6n)" height="62.5938" rx="2.5" ry="2.5" style="stroke:#181818;stroke-width:0.5;" width="178" x="553.8" y="130"/><rect fill="#ADD8E6" height="10" style="stroke:#181818;stroke-width:0.5;" width="15" x="711.8" y="135"/><rect fill="#ADD8E6" height="2" style="stroke:#181818;stroke-width:0.5;" width="4" x="709.8" y="137"/><rect fill="#ADD8E6" height="2" style="stroke:#181818;stroke-width:0.5;" width="4" x="709.8" y="141"/><text fill="#000000" font-family="sans-serif" font-size="14" font-style="italic" lengthAdjust="spacing" textLength="40" x="617.8" y="162.9951">&#171;API&#187;</text><text fill="#000000" font-family="sans-serif" font-size="14" lengthAdjust="spacing" textLength="138" x="568.8" y="179.292">&#1057;&#1077;&#1088;&#1074;&#1080;&#1089; Dictionaries</text></g><!--entity ETL--><g id="elem_ETL"><rect fill="#FFFFE0" filter="url(#fjscyk1klov6n)" height="62.5938" rx="2.5" ry="2.5" style="stroke:#181818;stroke-width:0.5;" width="118" x="583.8" y="7"/><rect fill="#FFFFE0" height="10" style="stroke:#181818;stroke-width:0.5;" width="15" x="681.8" y="12"/><rect fill="#FFFFE0" height="2" style="stroke:#181818;stroke-width:0.5;" width="4" x="679.8" y="14"/><rect fill="#FFFFE0" height="2" style="stroke:#181818;stroke-width:0.5;" width="4" x="679.8" y="18"/><text fill="#000000" font-family="sans-serif" font-size="14" font-style="italic" lengthAdjust="spacing" textLength="77" x="599.3" y="39.9951">&#171;Daemon&#187;</text><text fill="#000000" font-family="sans-serif" font-size="14" lengthAdjust="spacing" textLength="78" x="598.8" y="56.292">&#1044;&#1077;&#1084;&#1086;&#1085; ETL</text></g><!--entity ML--><g id="elem_ML"><rect fill="#FFFFE0" filter="url(#fjscyk1klov6n)" height="62.5938" rx="2.5" ry="2.5" style="stroke:#181818;stroke-width:0.5;" width="117" x="31.3" y="130"/><rect fill="#FFFFE0" height="10" style="stroke:#181818;stroke-width:0.5;" width="15" x="128.3" y="135"/><rect fill="#FFFFE0" height="2" style="stroke:#181818;stroke-width:0.5;" width="4" x="126.3" y="137"/><rect fill="#FFFFE0" height="2" style="stroke:#181818;stroke-width:0.5;" width="4" x="126.3" y="141"/><text fill="#000000" font-family="sans-serif" font-size="14" font-style="italic" lengthAdjust="spacing" textLength="77" x="46.3" y="162.9951">&#171;Daemon&#187;</text><text fill="#000000" font-family="sans-serif" font-size="14" lengthAdjust="spacing" textLength="72" x="48.8" y="179.292">&#1044;&#1077;&#1084;&#1086;&#1085; ML</text></g><!--entity Forecaster--><g id="elem_Forecaster"><rect fill="#ADD8E6" filter="url(#fjscyk1klov6n)" height="62.5938" rx="2.5" ry="2.5" style="stroke:#181818;stroke-width:0.5;" width="171" x="347.3" y="130"/><rect fill="#ADD8E6" height="10" style="stroke:#181818;stroke-width:0.5;" width="15" x="498.3" y="135"/><rect fill="#ADD8E6" height="2" style="stroke:#181818;stroke-width:0.5;" width="4" x="496.3" y="137"/><rect fill="#ADD8E6" height="2" style="stroke:#181818;stroke-width:0.5;" width="4" x="496.3" y="141"/><text fill="#000000" font-family="sans-serif" font-size="14" font-style="italic" lengthAdjust="spacing" textLength="40" x="407.8" y="162.9951">&#171;API&#187;</text><text fill="#000000" font-family="sans-serif" font-size="14" lengthAdjust="spacing" textLength="131" x="362.3" y="179.292">&#1057;&#1077;&#1088;&#1074;&#1080;&#1089; Forecaster</text></g><!--entity Results--><g id="elem_Results"><rect fill="#ADD8E6" filter="url(#fjscyk1klov6n)" height="62.5938" rx="2.5" ry="2.5" style="stroke:#181818;stroke-width:0.5;" width="213" x="766.3" y="130"/><rect fill="#ADD8E6" height="10" style="stroke:#181818;stroke-width:0.5;" width="15" x="959.3" y="135"/><rect fill="#ADD8E6" height="2" style="stroke:#181818;stroke-width:0.5;" width="4" x="957.3" y="137"/><rect fill="#ADD8E6" height="2" style="stroke:#181818;stroke-width:0.5;" width="4" x="957.3" y="141"/><text fill="#000000" font-family="sans-serif" font-size="14" font-style="italic" lengthAdjust="spacing" textLength="40" x="847.8" y="162.9951">&#171;API&#187;</text><text fill="#000000" font-family="sans-serif" font-size="14" lengthAdjust="spacing" textLength="173" x="781.3" y="179.292">&#1057;&#1077;&#1088;&#1074;&#1080;&#1089; Forecast Results</text></g><!--entity Redis--><g id="elem_Redis"><rect fill="#F1F1F1" filter="url(#fjscyk1klov6n)" height="46.2969" rx="2.5" ry="2.5" style="stroke:#181818;stroke-width:0.5;" width="79" x="393.3" y="253"/><rect fill="#F1F1F1" height="10" style="stroke:#181818;stroke-width:0.5;" width="15" x="452.3" y="258"/><rect fill="#F1F1F1" height="2" style="stroke:#181818;stroke-width:0.5;" width="4" x="450.3" y="260"/><rect fill="#F1F1F1" height="2" style="stroke:#181818;stroke-width:0.5;" width="4" x="450.3" y="264"/><text fill="#000000" font-family="sans-serif" font-size="14" lengthAdjust="spacing" textLength="39" x="408.3" y="285.9951">Redis</text></g><g id="elem_GMN19"><path d="M507.3,256 L507.3,272 L472.3,276 L507.3,280 L507.3,296.2656 A0,0 0 0 0 507.3,296.2656 L992.3,296.2656 A0,0 0 0 0 992.3,296.2656 L992.3,266 L982.3,256 L507.3,256 A0,0 0 0 0 507.3,256 " fill="#FEFFDD" filter="url(#fjscyk1klov6n)" style="stroke:#181818;stroke-width:0.5;"/><path d="M982.3,256 L982.3,266 L992.3,266 L982.3,256 " fill="#FEFFDD" style="stroke:#181818;stroke-width:0.5;"/><text fill="#000000" font-family="sans-serif" font-size="13" lengthAdjust="spacing" textLength="464" x="513.3" y="273.0669">Redis &#1080;&#1089;&#1087;&#1086;&#1083;&#1100;&#1079;&#1091;&#1077;&#1090;&#1089;&#1103; &#1082;&#1072;&#1082; &#1073;&#1088;&#1086;&#1082;&#1077;&#1088; &#1089;&#1086;&#1086;&#1073;&#1097;&#1077;&#1085;&#1080;&#1081; &#1084;&#1077;&#1078;&#1076;&#1091; &#1076;&#1077;&#1084;&#1086;&#1085;&#1072;&#1084;&#1080; ML/ETL,</text><text fill="#000000" font-family="sans-serif" font-size="13" lengthAdjust="spacing" textLength="323" x="513.3" y="288.1997">&#1089;&#1077;&#1088;&#1074;&#1080;&#1089;&#1086;&#1084; Forecaster &#1080; &#1089;&#1077;&#1088;&#1074;&#1080;&#1089;&#1086;&#1084; Forecast Results</text></g><!--link User to Auth--><g id="link_User_Auth"><path d="M360.74,39 C308.79,39 247.8,39 247.8,39 C247.8,39 247.8,87.66 247.8,123.95 " fill="none" id="User-to-Auth" style="stroke:#181818;stroke-width:1.0;"/><polygon fill="#181818" points="247.8,129.95,251.8,120.95,247.8,124.95,243.8,120.95,247.8,129.95" style="stroke:#181818;stroke-width:1.0;"/><text fill="#000000" font-family="sans-serif" font-size="13" lengthAdjust="spacing" textLength="143" x="114.79" y="20.0669">&#1088;&#1077;&#1075;&#1080;&#1089;&#1090;&#1088;&#1072;&#1094;&#1080;&#1103; &#1080; &#1083;&#1086;&#1075;&#1080;&#1085;</text><text fill="#000000" font-family="sans-serif" font-size="13" lengthAdjust="spacing" textLength="106" x="133.29" y="35.1997">(&#1087;&#1086;&#1083;&#1091;&#1095;&#1077;&#1085;&#1080;&#1077; JWT)</text></g><!--link User to Dicts--><g id="link_User_Dicts"><path d="M505.18,39 C537.65,39 568.8,39 568.8,39 C568.8,39 568.8,87.66 568.8,123.95 " fill="none" id="User-to-Dicts" style="stroke:#181818;stroke-width:1.0;"/><polygon fill="#181818" points="568.8,129.95,572.8,120.95,568.8,124.95,564.8,120.95,568.8,129.95" style="stroke:#181818;stroke-width:1.0;"/><text fill="#000000" font-family="sans-serif" font-size="13" lengthAdjust="spacing" textLength="145" x="406.8" y="65.7369">&#1079;&#1072;&#1087;&#1088;&#1086;&#1089; &#1089;&#1087;&#1088;&#1072;&#1074;&#1086;&#1095;&#1085;&#1080;&#1082;&#1086;&#1074;</text><text fill="#000000" font-family="sans-serif" font-size="13" lengthAdjust="spacing" textLength="177" x="390.8" y="80.8697">(&#1082;&#1072;&#1088;&#1090;&#1099;, &#1082;&#1086;&#1084;&#1072;&#1085;&#1076;&#1099;, &#1080;&#1075;&#1088;&#1086;&#1082;&#1080;)</text></g><!--link ETL to Dicts--><g id="link_ETL_Dicts"><path d="M642.8,70.18 C642.8,88.54 642.8,105.59 642.8,123.93 " fill="none" id="ETL-to-Dicts" style="stroke:#181818;stroke-width:1.0;"/><polygon fill="#181818" points="642.8,129.93,646.8,120.93,642.8,124.93,638.8,120.93,642.8,129.93" style="stroke:#181818;stroke-width:1.0;"/><text fill="#000000" font-family="sans-serif" font-size="13" lengthAdjust="spacing" textLength="304" x="643.8" y="96.1169">&#1086;&#1073;&#1085;&#1086;&#1074;&#1083;&#1077;&#1085;&#1080;&#1077; &#1080;&#1085;&#1092;&#1086;&#1088;&#1084;&#1072;&#1094;&#1080;&#1080; &#1086; &#1084;&#1072;&#1090;&#1095;&#1072;&#1093; &#1080; &#1080;&#1075;&#1088;&#1086;&#1082;&#1072;&#1093;</text></g><!--link ML to Redis--><g id="link_ML_Redis"><path d="M89.8,193.09 C89.8,226.98 89.8,276 89.8,276 C89.8,276 296.83,276 387.11,276 " fill="none" id="ML-to-Redis" style="stroke:#181818;stroke-width:1.0;"/><polygon fill="#181818" points="393.11,276,384.11,272,388.11,276,384.11,280,393.11,276" style="stroke:#181818;stroke-width:1.0;"/><text fill="#000000" font-family="sans-serif" font-size="13" lengthAdjust="spacing" textLength="164" x="21" y="257.0669">&#1087;&#1091;&#1073;&#1083;&#1080;&#1082;&#1072;&#1094;&#1080;&#1103; "ml_models"</text><text fill="#000000" font-family="sans-serif" font-size="13" lengthAdjust="spacing" textLength="192" x="7" y="272.1997">(&#1087;&#1091;&#1090;&#1100; &#1082; &#1084;&#1086;&#1076;&#1077;&#1083;&#1080; &#1080; &#1084;&#1077;&#1090;&#1088;&#1080;&#1082;&#1072;&#1084;)</text></g><!--link User to Forecaster--><g id="link_User_Forecaster"><path d="M432.8,61.64 C432.8,80.84 432.8,102.36 432.8,123.65 " fill="none" id="User-to-Forecaster" style="stroke:#181818;stroke-width:1.0;"/><polygon fill="#181818" points="432.8,129.65,436.8,120.65,432.8,124.65,428.8,120.65,432.8,129.65" style="stroke:#181818;stroke-width:1.0;"/><text fill="#000000" font-family="sans-serif" font-size="13" lengthAdjust="spacing" textLength="112" x="319.8" y="108.7069">&#1079;&#1072;&#1087;&#1088;&#1086;&#1089; &#1087;&#1088;&#1086;&#1075;&#1085;&#1086;&#1079;&#1072;</text></g><!--link Forecaster to Redis--><g id="link_Forecaster_Redis"><path d="M413.05,193.09 C413.05,212.02 413.05,229.67 413.05,246.86 " fill="none" id="Forecaster-to-Redis" style="stroke:#181818;stroke-width:1.0;"/><polygon fill="#181818" points="413.05,252.86,417.05,243.86,413.05,247.86,409.05,243.86,413.05,252.86" style="stroke:#181818;stroke-width:1.0;"/><text fill="#000000" font-family="sans-serif" font-size="13" lengthAdjust="spacing" textLength="318" x="94.05" y="219.0469">&#1087;&#1086;&#1076;&#1087;&#1080;&#1089;&#1082;&#1072; &#1085;&#1072; "ml_models" (&#1072;&#1082;&#1090;&#1091;&#1072;&#1083;&#1100;&#1085;&#1072;&#1103; &#1084;&#1086;&#1076;&#1077;&#1083;&#1100;)</text></g><!--link Forecaster to Redis--><g id="link_Forecaster_Redis"><path d="M432.8,193.09 C432.8,212.02 432.8,229.67 432.8,246.86 " fill="none" id="Forecaster-to-Redis-1" style="stroke:#181818;stroke-width:1.0;"/><polygon fill="#181818" points="432.8,252.86,436.8,243.86,432.8,247.86,428.8,243.86,432.8,252.86" style="stroke:#181818;stroke-width:1.0;"/><text fill="#000000" font-family="sans-serif" font-size="13" lengthAdjust="spacing" textLength="348" x="83.8" y="236.0469">&#1087;&#1091;&#1073;&#1083;&#1080;&#1082;&#1072;&#1094;&#1080;&#1103; "forecast_events" (&#1088;&#1077;&#1079;&#1091;&#1083;&#1100;&#1090;&#1072;&#1090; &#1087;&#1088;&#1086;&#1075;&#1085;&#1086;&#1079;&#1072;)</text></g><!--link Results to Redis--><g id="link_Results_Redis"><path d="M837.3,193.24 C837.3,203.83 837.3,213 837.3,213 C837.3,213 452.55,213 452.55,213 C452.55,213 452.55,228.92 452.55,246.9 " fill="none" id="Results-to-Redis" style="stroke:#181818;stroke-width:1.0;"/><polygon fill="#181818" points="452.55,252.9,456.55,243.9,452.55,247.9,448.55,243.9,452.55,252.9" style="stroke:#181818;stroke-width:1.0;"/><text fill="#000000" font-family="sans-serif" font-size="13" lengthAdjust="spacing" textLength="85" x="548.85" y="209.0669">&#1087;&#1086;&#1076;&#1087;&#1080;&#1089;&#1082;&#1072; &#1085;&#1072;</text><text fill="#000000" font-family="sans-serif" font-size="13" lengthAdjust="spacing" textLength="102" x="470.6797" y="242.1046">forecast_events</text></g><!--link Results to Results--><g id="link_Results_Results"><path d="M872.8,129.67 C872.8,114.66 872.8,100 872.8,100 C872.8,100 985.8,100 985.8,100 C985.8,100 985.8,233 985.8,233 C985.8,233 908.3,233 908.3,233 C908.3,233 908.3,218.22 908.3,199.07 " fill="none" id="Results-to-Results" style="stroke:#181818;stroke-width:1.0;"/><polygon fill="#181818" points="908.3,193.07,904.3,202.07,908.3,198.07,912.3,202.07,908.3,193.07" style="stroke:#181818;stroke-width:1.0;"/><text fill="#000000" font-family="sans-serif" font-size="13" lengthAdjust="spacing" textLength="222" x="991.8" y="144.9469">&#1089;&#1086;&#1093;&#1088;&#1072;&#1085;&#1077;&#1085;&#1080;&#1077; &#1087;&#1088;&#1086;&#1075;&#1085;&#1086;&#1079;&#1072; &#1074; MongoDB</text></g><!--SRC=[ZLHTInj157sVNt597wgWzAalKWIj5LeC5B6KGa5MCoQBcvsmEwcKKeX9RIaAGkbJ7oh-WusQkffaynTc_b7llPjrDo6XnU3Envbxpxtdp6ZL0ArWJscjwb1n0xclNUKB4HwwViC9d3hiEVk7rK0r_SfpvQa07cq-fRy28gmv5NNa-bNGGLCMDZpNb_fZGu8AT4qLW-whUaFvqjVmIG2iJwPuzcpjzSlLLTXogpMzxc786P0DHzQLdw7UISzJH-Ap48_1_3A96PWH_X-QdXdQjZq5UsnYUspRk32mfoBFNp8N2EpRCtEBtoiJCGRd9N12U1FAO09yQNgsXJ0C1cjDNMCK3M3CUYvwm-NMEe4hGpv52-7COp-99T675pjRZCKlv3NF0PTJR7akj4XdKw7MJgXbm8VowJyBoQ2mBSEcfzDYnkDPXxTbnSr0E6A9BkrNaWQxtJAnkGFyzCnrAX6E8zoEJGpqYso79K4TSVyBhjzd-uBaWUNbrLI1bPbXx3c7wMEBSCSCt_iBx8q-nlt696BJWrTlTnQPsGzxQheciItWF2ropnADoLCHeczm5fjh39_mwbNE8bLq1T1AaHaH0jk5pgDXXDrBCE6G2y1Zn6DE1fxdEM9cHXR0QHS1vDE-FKTDsc1k-CmGQVS4OIQ85F0FfL8Ji8zO8kNBEfq0pzf8CR8dtBAS0QvmStwRxaJNs7WtT5zGZ7AQcqMct2FRmUpzN31KebJtTkkg8hsmn3gGjlOCYvy8nTa7L1xR0u-RGQhE1HEwvffkyyONt3lL_NIGdJ2HA40dsNBw4Nc74WAPiqWN5Z3gFJBgu9UU2pBlUO6sFLkS7tnMAmx6u5tv0Uy9PM3xtY8MWw7R8v9tYd_QXilCekcRbd2RucamUJExb_zHwpIVgRFfU8NydDWJTlGmDy8KJJ1NK5P-LMsi2-4hBI6WPnhKmVWHW34RvZ3ANc0idKG_fiQIwcYBxjY2-FvmQhAq_JvEVCSsCN_modI0PU2NaFo2xIXlFS4BiOIvyE33-qNNh6WO1CxTpieMqgy0bI7-0W00]--></g></svg>